# xmcd
#
# Track frame offsets:
#	183
#	5773
#	8763
#	11940
#	14900
#	18060
#	24705
#	30608
#	36735
#	41403
#	47095
#	51638
#	56900
#	61788
#	68708
#	75435
#	82883
#	90468
#
# Disc length: 1275 seconds
#
# Revision: 1
# Processed by: cddbd v1.5.1PL0 Copyright (c) Steve Scherf et al.
# Submitted via: EasyCDDAExtractor 7.0.9.1
#
DISCID=e504f912
DTITLE=The Ranch Hands - Switched on country
DYEAR=1900
DGENRE=Country
TTITLE0=Hello I love you
TTITLE1=Sundown
TTITLE2=Woman, Beautiful woman
TTITLE3=Ruby, Dont take your love to town
TTITLE4=Gentle on my mind
TTITLE5=Jolene
TTITLE6=Let your love flow
TTITLE7=Rhinestone cowboy
TTITLE8=Oh, lonesome me
TTITLE9=Half the way
TTITLE10=I said you have a beautiful body
TTITLE11=Detroit City
TTITLE12=Down the mississippi
TTITLE13=Mississippi
TTITLE14=Some days are diamond
TTITLE15=Slow hand
TTITLE16=I dont wanna play house
TTITLE17=Your cheating heart
EXTD=
EXTT0=
EXTT1=
EXTT2=
EXTT3=
EXTT4=
EXTT5=
EXTT6=
EXTT7=
EXTT8=
EXTT9=
EXTT10=
EXTT11=
EXTT12=
EXTT13=
EXTT14=
EXTT15=
EXTT16=
EXTT17=
PLAYORDER=
